<?xml version="1.0" standalone="no"?>
<!DOCTYPE svg PUBLIC "-//W3C//DTD SVG 20010904//EN"
 "http://www.w3.org/TR/2001/REC-SVG-20010904/DTD/svg10.dtd">
<svg version="1.0" xmlns="http://www.w3.org/2000/svg"
 width="2000.000000pt" height="2000.000000pt" viewBox="0 0 2000.000000 2000.000000"
 preserveAspectRatio="xMidYMid meet">
<metadata>
Created by potrace 1.14, written by Peter Selinger 2001-2017
</metadata>
<g transform="translate(0.000000,2000.000000) scale(0.100000,-0.100000)"
fill="#000000" stroke="none">
<path d="M0 10000 l0 -10000 10000 0 10000 0 0 10000 0 10000 -10000 0 -10000
0 0 -10000z m3940 3335 l0 -405 -320 0 -320 0 0 -2990 0 -2990 320 0 320 0 -2
-402 -3 -403 -837 -3 -838 -2 0 3800 0 3800 840 0 840 0 0 -405z m13838 -3392
l-3 -3798 -837 -3 -838 -2 0 405 0 405 320 0 320 0 0 2990 0 2990 -320 0 -320
0 0 405 0 405 840 0 840 0 -2 -3797z m-5143 3092 c107 -23 208 -77 284 -154
109 -109 153 -219 154 -381 1 -164 -47 -286 -152 -390 -123 -122 -240 -164
-451 -164 -119 1 -145 4 -216 27 -228 75 -363 244 -381 477 -22 283 159 524
438 584 85 19 237 19 324 1z m-4825 -1080 l0 -495 760 0 760 0 0 -385 0 -385
-760 0 -760 0 0 -877 c0 -493 5 -931 10 -998 30 -361 180 -553 480 -615 210
-44 682 -10 1043 74 43 10 59 11 62 2 6 -18 95 -662 95 -685 0 -26 -26 -43
-134 -87 -277 -113 -677 -177 -1106 -178 -212 0 -262 3 -375 23 -633 112 -985
480 -1092 1142 -15 92 -17 229 -20 1152 l-4 1047 -465 0 -464 0 2 383 3 382
463 3 462 2 0 495 0 495 520 0 520 0 0 -495z m5190 -2100 l0 -1605 550 0 550
0 0 -425 0 -425 -1655 0 -1655 0 0 425 0 425 580 0 580 0 -2 1178 -3 1177
-577 3 -578 2 0 425 0 425 1105 0 1105 0 0 -1605z"/>
</g>
</svg>
